# MagicaVoxel @ Ephtracy

# material
mtllib pistol.mtl
usemtl palette

# normals
vn -1 0 0
vn 1 0 0
vn 0 0 1
vn 0 0 -1
vn 0 -1 0
vn 0 1 0

# texcoords
vt 0.537109 0.5
vt 0.974609 0.5

# verts
v -8 0 1
v -8 0 -1
v -8 2 1
v -8 2 -1
v -7 2 1
v -7 2 -1
v -7 4 1
v -7 4 -1
v -6 4 1
v -6 4 -1
v -6 6 1
v -6 6 -1
v -5 0 1
v -5 0 -1
v -5 3 1
v -5 3 -1
v -3 3 1
v -3 3 -1
v -3 4 1
v -3 4 -1
v 2 4 1
v 2 4 -1
v 2 6 1
v 2 6 -1
v -8 0 1
v -8 2 1
v -7 2 1
v -7 4 1
v -6 4 1
v -6 6 1
v -5 0 1
v -5 3 1
v -5 4 1
v -3 3 1
v -3 4 1
v 2 4 1
v 2 6 1
v -8 0 -1
v -8 2 -1
v -7 2 -1
v -7 4 -1
v -6 4 -1
v -6 6 -1
v -5 0 -1
v -5 3 -1
v -5 4 -1
v -3 3 -1
v -3 4 -1
v 2 4 -1
v 2 6 -1
v -8 0 1
v -5 0 1
v -8 0 -1
v -5 0 -1
v -5 3 1
v -3 3 1
v -5 3 -1
v -3 3 -1
v -3 4 1
v 2 4 1
v -3 4 -1
v 2 4 -1
v -8 2 1
v -7 2 1
v -8 2 -1
v -7 2 -1
v -7 4 1
v -6 4 1
v -7 4 -1
v -6 4 -1
v -6 6 1
v 2 6 1
v -6 6 -1
v 2 6 -1

# faces
f 3/1/1 2/1/1 1/1/1
f 4/1/1 2/1/1 3/1/1
f 7/1/1 6/1/1 5/1/1
f 8/1/1 6/1/1 7/1/1
f 11/2/1 10/2/1 9/2/1
f 12/2/1 10/2/1 11/2/1
f 13/1/2 14/1/2 15/1/2
f 15/1/2 14/1/2 16/1/2
f 17/2/2 18/2/2 19/2/2
f 19/2/2 18/2/2 20/2/2
f 21/2/2 22/2/2 23/2/2
f 23/2/2 22/2/2 24/2/2
f 27/1/3 26/1/3 25/1/3
f 29/1/3 28/1/3 27/1/3
f 31/1/3 27/1/3 25/1/3
f 31/1/3 29/1/3 27/1/3
f 32/1/3 29/1/3 31/1/3
f 33/2/3 30/2/3 29/2/3
f 33/1/3 29/1/3 32/1/3
f 34/2/3 33/2/3 32/2/3
f 35/2/3 30/2/3 33/2/3
f 35/2/3 33/2/3 34/2/3
f 36/2/3 30/2/3 35/2/3
f 37/2/3 30/2/3 36/2/3
f 38/1/4 39/1/4 40/1/4
f 40/1/4 41/1/4 42/1/4
f 38/1/4 40/1/4 44/1/4
f 40/1/4 42/1/4 44/1/4
f 44/1/4 42/1/4 45/1/4
f 42/2/4 43/2/4 46/2/4
f 45/1/4 42/1/4 46/1/4
f 45/2/4 46/2/4 47/2/4
f 46/2/4 43/2/4 48/2/4
f 47/2/4 46/2/4 48/2/4
f 48/2/4 43/2/4 49/2/4
f 49/2/4 43/2/4 50/2/4
f 53/1/5 52/1/5 51/1/5
f 54/1/5 52/1/5 53/1/5
f 57/2/5 56/2/5 55/2/5
f 58/2/5 56/2/5 57/2/5
f 61/2/5 60/2/5 59/2/5
f 62/2/5 60/2/5 61/2/5
f 63/1/6 64/1/6 65/1/6
f 65/1/6 64/1/6 66/1/6
f 67/1/6 68/1/6 69/1/6
f 69/1/6 68/1/6 70/1/6
f 71/2/6 72/2/6 73/2/6
f 73/2/6 72/2/6 74/2/6
