# MagicaVoxel @ Ephtracy

# material
mtllib noticeboard.mtl
usemtl palette

# normals
vn -1 0 0
vn 1 0 0
vn 0 0 1
vn 0 0 -1
vn 0 -1 0
vn 0 1 0

# texcoords
vt 0.0605469 0.5
vt 0.173828 0.5
vt 0.873047 0.5
vt 0.958984 0.5

# verts
v 0 0 10
v 0 0 8
v 0 0 -7
v 0 0 -9
v 0 6 7
v 0 6 -6
v 0 7 6
v 0 7 3
v 0 7 -5
v 0 9 -2
v 0 9 -4
v 0 11 6
v 0 11 3
v 0 11 2
v 0 11 -0
v 0 12 -2
v 0 12 -4
v 0 14 2
v 0 14 -0
v 0 14 -1
v 0 14 -4
v 0 15 4
v 0 15 2
v 0 18 4
v 0 18 2
v 0 18 -1
v 0 18 -4
v 0 19 6
v 0 19 -5
v 0 20 7
v 0 20 6
v 0 20 5
v 0 20 -4
v 0 20 -5
v 0 20 -6
v 0 21 8
v 0 21 6
v 0 21 5
v 0 21 -4
v 0 21 -5
v 0 21 -7
v 0 22 10
v 0 22 9
v 0 22 -8
v 0 22 -9
v 0 23 9
v 0 23 -8
v 2 0 10
v 2 0 8
v 2 0 -7
v 2 0 -9
v 2 6 7
v 2 6 -6
v 2 20 7
v 2 20 6
v 2 20 5
v 2 20 -4
v 2 20 -5
v 2 20 -6
v 2 21 8
v 2 21 6
v 2 21 5
v 2 21 -4
v 2 21 -5
v 2 21 -7
v 2 22 10
v 2 22 9
v 2 22 -8
v 2 22 -9
v 2 23 9
v 2 23 -8
v 0 0 10
v 0 22 10
v 2 0 10
v 2 22 10
v 0 22 9
v 0 23 9
v 2 22 9
v 2 23 9
v 0 6 7
v 0 20 7
v 2 6 7
v 2 20 7
v 0 20 6
v 0 21 6
v 2 20 6
v 2 21 6
v 0 20 -4
v 0 21 -4
v 2 20 -4
v 2 21 -4
v 0 0 -7
v 0 21 -7
v 2 0 -7
v 2 21 -7
v 0 0 8
v 0 21 8
v 2 0 8
v 2 21 8
v 0 20 5
v 0 21 5
v 2 20 5
v 2 21 5
v 0 20 -5
v 0 21 -5
v 2 20 -5
v 2 21 -5
v 0 6 -6
v 0 20 -6
v 2 6 -6
v 2 20 -6
v 0 22 -8
v 0 23 -8
v 2 22 -8
v 2 23 -8
v 0 0 -9
v 0 22 -9
v 2 0 -9
v 2 22 -9
v 0 0 10
v 2 0 10
v 0 0 8
v 2 0 8
v 0 0 -7
v 2 0 -7
v 0 0 -9
v 2 0 -9
v 0 6 7
v 2 6 7
v 0 6 -6
v 2 6 -6
v 0 21 8
v 2 21 8
v 0 21 6
v 2 21 6
v 0 21 5
v 2 21 5
v 0 21 -4
v 2 21 -4
v 0 21 -5
v 2 21 -5
v 0 21 -7
v 2 21 -7
v 0 20 7
v 2 20 7
v 0 20 6
v 2 20 6
v 0 20 5
v 2 20 5
v 0 20 -4
v 2 20 -4
v 0 20 -5
v 2 20 -5
v 0 20 -6
v 2 20 -6
v 0 22 10
v 2 22 10
v 0 22 9
v 2 22 9
v 0 22 -8
v 2 22 -8
v 0 22 -9
v 2 22 -9
v 0 23 9
v 2 23 9
v 0 23 -8
v 2 23 -8

# faces
f 7/3/1 6/3/1 5/3/1
f 8/3/1 6/3/1 7/3/1
f 9/3/1 6/3/1 8/3/1
f 10/1/1 9/1/1 8/1/1
f 11/1/1 9/1/1 10/1/1
f 12/3/1 7/3/1 5/3/1
f 12/4/1 8/4/1 7/4/1
f 13/1/1 10/1/1 8/1/1
f 13/4/1 8/4/1 12/4/1
f 14/1/1 10/1/1 13/1/1
f 15/1/1 10/1/1 14/1/1
f 16/4/1 11/4/1 10/4/1
f 16/1/1 10/1/1 15/1/1
f 17/1/1 9/1/1 11/1/1
f 17/4/1 11/4/1 16/4/1
f 18/4/1 15/4/1 14/4/1
f 18/1/1 13/1/1 12/1/1
f 18/1/1 14/1/1 13/1/1
f 19/1/1 16/1/1 15/1/1
f 19/4/1 15/4/1 18/4/1
f 19/1/1 17/1/1 16/1/1
f 20/1/1 17/1/1 19/1/1
f 21/1/1 9/1/1 17/1/1
f 21/1/1 17/1/1 20/1/1
f 22/1/1 18/1/1 12/1/1
f 22/1/1 20/1/1 19/1/1
f 22/1/1 19/1/1 18/1/1
f 23/1/1 20/1/1 22/1/1
f 24/1/1 22/1/1 12/1/1
f 24/4/1 23/4/1 22/4/1
f 25/1/1 20/1/1 23/1/1
f 25/4/1 23/4/1 24/4/1
f 26/4/1 21/4/1 20/4/1
f 26/1/1 20/1/1 25/1/1
f 27/1/1 9/1/1 21/1/1
f 27/4/1 21/4/1 26/4/1
f 28/1/1 26/1/1 25/1/1
f 28/1/1 25/1/1 24/1/1
f 28/1/1 27/1/1 26/1/1
f 28/1/1 24/1/1 12/1/1
f 28/3/1 12/3/1 5/3/1
f 29/1/1 9/1/1 27/1/1
f 29/1/1 27/1/1 28/1/1
f 29/3/1 6/3/1 9/3/1
f 30/3/1 28/3/1 5/3/1
f 30/3/1 29/3/1 28/3/1
f 31/3/1 29/3/1 30/3/1
f 32/3/1 29/3/1 31/3/1
f 33/3/1 29/3/1 32/3/1
f 34/3/1 6/3/1 29/3/1
f 34/3/1 29/3/1 33/3/1
f 35/3/1 6/3/1 34/3/1
f 36/3/1 2/3/1 1/3/1
f 37/2/1 32/2/1 31/2/1
f 38/2/1 32/2/1 37/2/1
f 39/2/1 34/2/1 33/2/1
f 40/2/1 34/2/1 39/2/1
f 41/3/1 4/3/1 3/3/1
f 42/3/1 40/3/1 39/3/1
f 42/3/1 41/3/1 40/3/1
f 42/3/1 39/3/1 38/3/1
f 42/3/1 38/3/1 37/3/1
f 42/3/1 36/3/1 1/3/1
f 42/3/1 37/3/1 36/3/1
f 43/3/1 41/3/1 42/3/1
f 44/3/1 4/3/1 41/3/1
f 44/3/1 41/3/1 43/3/1
f 45/3/1 4/3/1 44/3/1
f 46/3/1 44/3/1 43/3/1
f 47/3/1 44/3/1 46/3/1
f 52/3/2 53/3/2 54/3/2
f 54/3/2 53/3/2 55/3/2
f 55/3/2 53/3/2 56/3/2
f 56/3/2 53/3/2 57/3/2
f 57/3/2 53/3/2 58/3/2
f 58/3/2 53/3/2 59/3/2
f 48/3/2 49/3/2 60/3/2
f 55/2/2 56/2/2 61/2/2
f 61/2/2 56/2/2 62/2/2
f 57/2/2 58/2/2 63/2/2
f 63/2/2 58/2/2 64/2/2
f 50/3/2 51/3/2 65/3/2
f 63/3/2 64/3/2 66/3/2
f 64/3/2 65/3/2 66/3/2
f 62/3/2 63/3/2 66/3/2
f 61/3/2 62/3/2 66/3/2
f 48/3/2 60/3/2 66/3/2
f 60/3/2 61/3/2 66/3/2
f 66/3/2 65/3/2 67/3/2
f 65/3/2 51/3/2 68/3/2
f 67/3/2 65/3/2 68/3/2
f 68/3/2 51/3/2 69/3/2
f 67/3/2 68/3/2 70/3/2
f 70/3/2 68/3/2 71/3/2
f 74/3/3 73/3/3 72/3/3
f 75/3/3 73/3/3 74/3/3
f 78/3/3 77/3/3 76/3/3
f 79/3/3 77/3/3 78/3/3
f 82/3/3 81/3/3 80/3/3
f 83/3/3 81/3/3 82/3/3
f 86/2/3 85/2/3 84/2/3
f 87/2/3 85/2/3 86/2/3
f 90/2/3 89/2/3 88/2/3
f 91/2/3 89/2/3 90/2/3
f 94/3/3 93/3/3 92/3/3
f 95/3/3 93/3/3 94/3/3
f 96/3/4 97/3/4 98/3/4
f 98/3/4 97/3/4 99/3/4
f 100/2/4 101/2/4 102/2/4
f 102/2/4 101/2/4 103/2/4
f 104/2/4 105/2/4 106/2/4
f 106/2/4 105/2/4 107/2/4
f 108/3/4 109/3/4 110/3/4
f 110/3/4 109/3/4 111/3/4
f 112/3/4 113/3/4 114/3/4
f 114/3/4 113/3/4 115/3/4
f 116/3/4 117/3/4 118/3/4
f 118/3/4 117/3/4 119/3/4
f 122/3/5 121/3/5 120/3/5
f 123/3/5 121/3/5 122/3/5
f 126/3/5 125/3/5 124/3/5
f 127/3/5 125/3/5 126/3/5
f 130/3/5 129/3/5 128/3/5
f 131/3/5 129/3/5 130/3/5
f 134/3/5 133/3/5 132/3/5
f 135/3/5 133/3/5 134/3/5
f 138/3/5 137/3/5 136/3/5
f 139/3/5 137/3/5 138/3/5
f 142/3/5 141/3/5 140/3/5
f 143/3/5 141/3/5 142/3/5
f 144/3/6 145/3/6 146/3/6
f 146/3/6 145/3/6 147/3/6
f 148/3/6 149/3/6 150/3/6
f 150/3/6 149/3/6 151/3/6
f 152/3/6 153/3/6 154/3/6
f 154/3/6 153/3/6 155/3/6
f 156/3/6 157/3/6 158/3/6
f 158/3/6 157/3/6 159/3/6
f 160/3/6 161/3/6 162/3/6
f 162/3/6 161/3/6 163/3/6
f 164/3/6 165/3/6 166/3/6
f 166/3/6 165/3/6 167/3/6
